<svg xmlns="http://www.w3.org/2000/svg" xmlns:xlink="http://www.w3.org/1999/xlink" width="250" zoomAndPan="magnify" viewBox="0 0 187.5 37.5" height="50" preserveAspectRatio="xMidYMid meet" version="1.0"><defs><g/><clipPath id="737e3b0877"><path d="M 149 1 L 186.019531 1 L 186.019531 6 L 149 6 Z M 149 1 " clip-rule="nonzero"/></clipPath><clipPath id="61c4524f79"><path d="M 182 0 L 186.019531 0 L 186.019531 37.007812 L 182 37.007812 Z M 182 0 " clip-rule="nonzero"/></clipPath><clipPath id="862a31f746"><path d="M 0.988281 33 L 39 33 L 39 37 L 0.988281 37 Z M 0.988281 33 " clip-rule="nonzero"/></clipPath><clipPath id="5cd7699ca5"><path d="M 1 0 L 5 0 L 5 37.007812 L 1 37.007812 Z M 1 0 " clip-rule="nonzero"/></clipPath></defs><g fill="#15bffd" fill-opacity="1"><g transform="translate(8.636815, 30.933601)"><g><path d="M 11.574219 -16.492188 L 9.433594 -13.511719 L 4.589844 -20.316406 C 4.539062 -20.367188 4.410156 -20.394531 4.332031 -20.394531 L 0.304688 -20.394531 C 0.0273438 -20.394531 -0.078125 -20.1875 0.0507812 -20.011719 C 2.523438 -16.542969 5.046875 -13.078125 7.496094 -9.585938 L 7.496094 -0.230469 C 7.496094 -0.128906 7.597656 0 7.773438 0 L 11.113281 0 C 11.265625 0 11.394531 -0.128906 11.394531 -0.230469 L 11.394531 -9.585938 L 16.3125 -16.492188 Z M 11.574219 -16.492188 "/></g></g></g><g fill="#15bffd" fill-opacity="1"><g transform="translate(28.568614, 30.933601)"><g><path d="M 16.007812 -0.304688 L 8.257812 -20.238281 C 8.183594 -20.445312 7.824219 -20.445312 7.75 -20.238281 L 0.0273438 -0.304688 C -0.0507812 -0.152344 0.0507812 0 0.28125 0 L 3.773438 0 C 3.875 0 4.003906 -0.0507812 4.027344 -0.152344 L 8.003906 -11.523438 L 12.03125 -0.152344 C 12.058594 -0.0507812 12.183594 0 12.261719 0 L 15.777344 0 C 15.957031 0 16.085938 -0.152344 16.007812 -0.304688 Z M 16.007812 -0.304688 "/></g></g></g><g fill="#15bffd" fill-opacity="1"><g transform="translate(48.194557, 30.933601)"><g><path d="M 9.355469 -11.316406 C 7.902344 -12.007812 6.476562 -12.007812 6.347656 -12.007812 C 5.046875 -12.007812 3.796875 -12.769531 3.796875 -14.25 C 3.796875 -15.882812 4.945312 -16.722656 6.347656 -16.722656 C 7.671875 -16.722656 8.792969 -16.035156 8.84375 -14.582031 C 8.84375 -14.503906 8.972656 -14.378906 9.125 -14.378906 L 12.3125 -14.378906 C 12.492188 -14.378906 12.617188 -14.503906 12.59375 -14.582031 C 12.542969 -18.046875 9.839844 -20.394531 6.347656 -20.394531 C 3.085938 -20.394531 0 -18.074219 0 -14.25 C 0 -11.878906 1.199219 -10.070312 3.3125 -9.101562 C 4.792969 -8.414062 6.167969 -8.414062 6.347656 -8.414062 C 7.496094 -8.359375 8.894531 -7.445312 8.894531 -5.941406 C 8.894531 -4.589844 7.699219 -3.671875 6.347656 -3.671875 C 6.347656 -3.671875 6.347656 -3.671875 6.320312 -3.671875 L 6.320312 0 C 6.347656 0 6.347656 0 6.347656 0 C 9.609375 0 12.667969 -2.117188 12.667969 -5.941406 C 12.667969 -8.335938 11.496094 -10.324219 9.355469 -11.316406 Z M 9.355469 -11.316406 "/></g></g></g><g fill="#15bffd" fill-opacity="1"><g transform="translate(64.303213, 30.933601)"><g><path d="M 9.355469 -11.316406 C 7.902344 -12.007812 6.476562 -12.007812 6.347656 -12.007812 C 5.046875 -12.007812 3.796875 -12.769531 3.796875 -14.25 C 3.796875 -15.882812 4.945312 -16.722656 6.347656 -16.722656 C 7.671875 -16.722656 8.792969 -16.035156 8.84375 -14.582031 C 8.84375 -14.503906 8.972656 -14.378906 9.125 -14.378906 L 12.3125 -14.378906 C 12.492188 -14.378906 12.617188 -14.503906 12.59375 -14.582031 C 12.542969 -18.046875 9.839844 -20.394531 6.347656 -20.394531 C 3.085938 -20.394531 0 -18.074219 0 -14.25 C 0 -11.878906 1.199219 -10.070312 3.3125 -9.101562 C 4.792969 -8.414062 6.167969 -8.414062 6.347656 -8.414062 C 7.496094 -8.359375 8.894531 -7.445312 8.894531 -5.941406 C 8.894531 -4.589844 7.699219 -3.671875 6.347656 -3.671875 C 6.347656 -3.671875 6.347656 -3.671875 6.320312 -3.671875 L 6.320312 0 C 6.347656 0 6.347656 0 6.347656 0 C 9.609375 0 12.667969 -2.117188 12.667969 -5.941406 C 12.667969 -8.335938 11.496094 -10.324219 9.355469 -11.316406 Z M 9.355469 -11.316406 "/></g></g></g><g fill="#15bffd" fill-opacity="1"><g transform="translate(80.41187, 30.933601)"><g><path d="M 8.308594 -3.492188 L 6.269531 -3.492188 L 6.269531 -20.394531 L 2.371094 -20.394531 L 2.371094 -3.492188 L 0.28125 -3.492188 C 0.128906 -3.492188 0 -3.390625 0 -3.261719 L 0 -0.230469 C 0 -0.128906 0.128906 0 0.28125 0 L 8.308594 0 C 8.488281 0 8.589844 -0.128906 8.589844 -0.230469 L 8.589844 -3.261719 C 8.589844 -3.390625 8.488281 -3.492188 8.308594 -3.492188 Z M 8.308594 -3.492188 "/></g></g></g><g fill="#15bffd" fill-opacity="1"><g transform="translate(92.238612, 30.933601)"><g><path d="M 16.875 -20.394531 L 13.585938 -20.394531 C 13.410156 -20.394531 13.28125 -20.265625 13.28125 -20.164062 L 13.28125 -6.882812 L 3.875 -20.316406 C 3.847656 -20.367188 3.695312 -20.394531 3.644531 -20.394531 L 0.253906 -20.394531 C 0.128906 -20.394531 0 -20.265625 0 -20.164062 L 0 -4.894531 L 3.898438 -4.894531 L 3.898438 -13.511719 L 13.28125 -0.078125 C 13.304688 -0.0273438 13.460938 0 13.511719 0 L 16.875 0 C 17.054688 0 17.15625 -0.128906 17.15625 -0.230469 L 17.15625 -20.164062 C 17.15625 -20.265625 17.054688 -20.394531 16.875 -20.394531 Z M 16.875 -20.394531 "/></g></g></g><g fill="#15bffd" fill-opacity="1"><g transform="translate(113.062474, 30.933601)"><g/></g></g><g fill="#15bffd" fill-opacity="1"><g transform="translate(122.238503, 30.933601)"><g><path d="M 16.007812 -0.304688 L 8.257812 -20.238281 C 8.183594 -20.445312 7.824219 -20.445312 7.75 -20.238281 L 0.0273438 -0.304688 C -0.0507812 -0.152344 0.0507812 0 0.28125 0 L 3.773438 0 C 3.875 0 4.003906 -0.0507812 4.027344 -0.152344 L 8.003906 -11.523438 L 12.03125 -0.152344 C 12.058594 -0.0507812 12.183594 0 12.261719 0 L 15.777344 0 C 15.957031 0 16.085938 -0.152344 16.007812 -0.304688 Z M 16.007812 -0.304688 "/></g></g></g><g fill="#15bffd" fill-opacity="1"><g transform="translate(141.864444, 30.933601)"><g><path d="M 13.917969 -0.332031 C 12.644531 -3.160156 11.265625 -5.964844 9.992188 -8.84375 C 12.03125 -9.585938 13.738281 -11.214844 13.738281 -14.324219 C 13.738281 -20.34375 8.003906 -20.394531 6.855469 -20.394531 L 0.253906 -20.394531 C 0.128906 -20.394531 0 -20.265625 0 -20.164062 L 0 -16.695312 L 6.855469 -16.695312 C 7.46875 -16.695312 9.863281 -16.570312 9.863281 -14.324219 C 9.863281 -12.082031 7.699219 -11.980469 6.855469 -11.980469 L 0 -11.980469 L 0 -0.230469 C 0 -0.128906 0.128906 0 0.253906 0 L 3.59375 0 C 3.746094 0 3.875 -0.128906 3.875 -0.230469 L 3.875 -8.234375 L 6.066406 -8.234375 L 9.789062 -0.152344 C 9.8125 -0.078125 9.96875 0 10.042969 0 L 13.6875 0 C 13.894531 0 13.996094 -0.152344 13.917969 -0.332031 Z M 13.917969 -0.332031 "/></g></g></g><g fill="#15bffd" fill-opacity="1"><g transform="translate(159.323942, 30.933601)"><g><path d="M 15.039062 -20.394531 L 11.726562 -20.394531 C 11.546875 -20.394531 11.445312 -20.265625 11.445312 -20.164062 L 11.445312 -6.804688 C 11.445312 -4.742188 9.558594 -3.746094 7.648438 -3.746094 C 5.761719 -3.746094 4.078125 -4.816406 3.847656 -6.832031 L 3.847656 -16.695312 L 0 -16.695312 L 0 -6.804688 C 0 -2.601562 3.441406 0 7.648438 0 C 11.980469 0 15.292969 -2.5 15.292969 -6.804688 L 15.292969 -20.164062 C 15.292969 -20.265625 15.167969 -20.394531 15.039062 -20.394531 Z M 15.039062 -20.394531 "/></g></g></g><g clip-path="url(#737e3b0877)"><path stroke-linecap="butt" transform="matrix(-0.747458, -0.000000000000000092, 0.000000000000000091, -0.742105, 187.119865, 5.624968)" fill="none" stroke-linejoin="miter" d="M -0.00164337 3.000289 L 47.659892 3.000289 " stroke="#15bffd" stroke-width="6" stroke-opacity="1" stroke-miterlimit="4"/></g><g clip-path="url(#61c4524f79)"><path stroke-linecap="butt" transform="matrix(0.000000000000000046, -0.74933, 0.742105, 0.000000000000000045, 182.801746, 37.104389)" fill="none" stroke-linejoin="miter" d="M -0.00144068 2.999033 L 46.550593 2.999033 " stroke="#15bffd" stroke-width="6" stroke-opacity="1" stroke-miterlimit="4"/></g><g clip-path="url(#862a31f746)"><path stroke-linecap="butt" transform="matrix(0.747458, 0, 0, 0.742105, 0.986842, 33.155466)" fill="none" stroke-linejoin="miter" d="M 0.00192539 2.501334 L 47.66346 2.501334 " stroke="#15bffd" stroke-width="5" stroke-opacity="1" stroke-miterlimit="4"/></g><g clip-path="url(#5cd7699ca5)"><path stroke-linecap="butt" transform="matrix(0.000000000000000046, 0.74933, -0.742105, 0.000000000000000045, 4.935765, 1.304993)" fill="none" stroke-linejoin="miter" d="M -0.000407348 2.497939 L 46.551627 2.497939 " stroke="#15bffd" stroke-width="5" stroke-opacity="1" stroke-miterlimit="4"/></g></svg>